<?xml version="1.0" encoding="utf-8"?>
<!-- Generator: Adobe Illustrator 19.2.1, SVG Export Plug-In . SVG Version: 6.00 Build 0)  -->
<svg version="1.1" id="Layer_1" xmlns="http://www.w3.org/2000/svg" xmlns:xlink="http://www.w3.org/1999/xlink" x="0px" y="0px"
	 viewBox="0 0 310 310" style="enable-background:new 0 0 310 310;" xml:space="preserve">
<style type="text/css">
	.st0{fill:#FFFFFF;}
</style>
<g>
	<path class="st0" d="M46.4,94.7c2.4-0.5,6.3-0.9,10.2-0.9c5.6,0,9.1,1,11.8,3.1c2.2,1.7,3.6,4.2,3.6,7.6c0,4.2-2.7,7.8-7.3,9.5v0.1
		c4.1,1,8.9,4.4,8.9,10.8c0,3.7-1.5,6.5-3.6,8.6c-3,2.7-7.9,4-14.9,4c-3.8,0-6.8-0.3-8.6-0.5V94.7z M52,112.3h5
		c5.9,0,9.3-3.1,9.3-7.2c0-5-3.8-7-9.5-7c-2.6,0-4,0.2-4.9,0.4V112.3z M52,132.9c1.1,0.2,2.7,0.3,4.7,0.3c5.8,0,11.1-2.1,11.1-8.4
		c0-5.9-5-8.3-11.1-8.3H52V132.9z"/>
	<path class="st0" d="M106.7,128.7c0,3.2,0.1,6,0.3,8.4h-5l-0.3-5h-0.1c-1.5,2.5-4.7,5.8-10.2,5.8c-4.9,0-10.7-2.7-10.7-13.5v-18.1
		h5.6v17.1c0,5.9,1.8,9.8,6.9,9.8c3.8,0,6.4-2.6,7.4-5.1c0.3-0.8,0.5-1.9,0.5-2.9v-19h5.6V128.7z"/>
	<path class="st0" d="M116.1,91.8h5.6v45.4h-5.6V91.8z"/>
	<path class="st0" d="M131.1,91.8h5.6v45.4h-5.6V91.8z"/>
	<path class="st0" d="M149.4,122.7c0.1,7.6,5,10.7,10.6,10.7c4,0,6.5-0.7,8.6-1.6l1,4c-2,0.9-5.4,1.9-10.3,1.9
		c-9.5,0-15.2-6.3-15.2-15.6c0-9.3,5.5-16.7,14.5-16.7c10.1,0,12.8,8.9,12.8,14.6c0,1.2-0.1,2-0.2,2.6H149.4z M165.8,118.7
		c0.1-3.6-1.5-9.1-7.8-9.1c-5.7,0-8.2,5.2-8.6,9.1H165.8z"/>
	<path class="st0" d="M185,97.3v8.9h8.1v4.3H185v16.7c0,3.8,1.1,6,4.2,6c1.5,0,2.6-0.2,3.3-0.4l0.3,4.2c-1.1,0.4-2.8,0.8-5,0.8
		c-2.6,0-4.7-0.8-6.1-2.4c-1.6-1.7-2.2-4.4-2.2-8.1v-16.9h-4.8v-4.3h4.8v-7.4L185,97.3z"/>
	<path class="st0" d="M120.5,213.8v-43.1h6.1l13.8,21.8c3.2,5,5.7,9.6,7.7,14l0.1-0.1c-0.5-5.8-0.6-11-0.6-17.7v-18h5.2v43.1h-5.6
		L133.6,192c-3-4.8-5.9-9.7-8.1-14.4l-0.2,0.1c0.3,5.4,0.4,10.6,0.4,17.8v18.4H120.5z"/>
	<path class="st0" d="M190.4,198.1c0,11.4-7.9,16.4-15.4,16.4c-8.4,0-14.8-6.1-14.8-15.9c0-10.4,6.8-16.4,15.3-16.4
		C184.4,182.2,190.4,188.7,190.4,198.1z M165.8,198.4c0,6.8,3.9,11.9,9.4,11.9c5.4,0,9.4-5,9.4-12c0-5.2-2.6-11.9-9.3-11.9
		C168.7,186.4,165.8,192.6,165.8,198.4z"/>
	<path class="st0" d="M204.2,174v8.9h8.1v4.3h-8.1v16.7c0,3.8,1.1,6,4.2,6c1.5,0,2.6-0.2,3.3-0.4l0.3,4.2c-1.1,0.4-2.8,0.8-5,0.8
		c-2.6,0-4.7-0.8-6.1-2.4c-1.6-1.7-2.2-4.4-2.2-8.1v-16.9H194v-4.3h4.8v-7.4L204.2,174z"/>
	<path class="st0" d="M221.4,199.4c0.1,7.6,5,10.7,10.6,10.7c4,0,6.5-0.7,8.6-1.6l1,4c-2,0.9-5.4,1.9-10.3,1.9
		c-9.5,0-15.2-6.3-15.2-15.6c0-9.3,5.5-16.7,14.5-16.7c10.1,0,12.8,8.9,12.8,14.6c0,1.2-0.1,2-0.2,2.6H221.4z M237.9,195.4
		c0.1-3.6-1.5-9.1-7.8-9.1c-5.7,0-8.2,5.2-8.6,9.1H237.9z"/>
	<path class="st0" d="M249.5,208.1c1.7,1.1,4.6,2.2,7.4,2.2c4.1,0,6-2,6-4.6c0-2.7-1.6-4.2-5.8-5.7c-5.6-2-8.2-5-8.2-8.8
		c0-5,4-9.1,10.7-9.1c3.1,0,5.9,0.9,7.6,1.9l-1.4,4.1c-1.2-0.8-3.5-1.8-6.3-1.8c-3.3,0-5.2,1.9-5.2,4.2c0,2.6,1.9,3.7,5.9,5.2
		c5.4,2,8.1,4.7,8.1,9.3c0,5.4-4.2,9.3-11.6,9.3c-3.4,0-6.5-0.8-8.7-2.1L249.5,208.1z"/>
</g>
</svg>
